<svg width="16" height="16" viewBox="0 0 16 16" fill="none" xmlns="http://www.w3.org/2000/svg"> <path d="M8 16C12.4183 16 16 12.4183 16 8C16 3.58167 12.4183 0 8 0C3.58167 0 0 3.58167 0 8C0 12.4183 3.58167 16 8 16Z" fill="#EB0A29"/> <path d="M10.9733 4.70665H10.3467V10.8H8.57335V10.1533C8.10668 10.6867 7.54002 10.94 6.91335 10.94C5.53335 10.94 4.43335 9.89332 4.43335 7.99332C4.43335 6.09332 5.51335 5.05998 6.91335 5.05998C7.52668 5.05998 8.12002 5.30665 8.57335 5.85998V4.71332H6.94668V3.73998H8.57335V3.06665H10.3467V3.73998H10.9733V4.71332V4.70665ZM5.60002 11.96H9.81335V12.9467H5.60002V11.96ZM8.57335 7.13332C8.34002 6.83332 7.88002 6.63332 7.49335 6.63332C6.78668 6.63332 6.26668 7.15332 6.26668 7.99332C6.26668 8.83332 6.78668 9.35998 7.49335 9.35998C7.87335 9.35998 8.34002 9.15332 8.57335 8.84665V7.12665V7.13332Z" fill="#FFC800"/> </svg>
