<svg xmlns="http://www.w3.org/2000/svg" viewBox="0 0 1173.68 1098.98" width="80" height="80"><defs><clipPath id="clippath"><path class="cls-10" d="M1150.53 674.43V851.4c0 15.25-11.32 27.61-25.28 27.61h-669.7c-13.96 0-25.28-12.36-25.28-27.61V646.82c0-125.88 93.42-227.93 208.67-227.93h277.64c129.2 0 233.94 114.41 233.94 255.55Z"/></clipPath><clipPath id="clippath-1"><path class="cls-10" d="M544.64 638.85H267c-115.25 0-208.67 102.05-208.67 227.93v204.58c0 15.25 11.32 27.61 25.28 27.61h669.7c13.96 0 25.28-12.36 25.28-27.61V894.39c0-141.14-104.74-255.55-233.94-255.55Z"/></clipPath><style>.cls-1{fill:#fff}.cls-2{fill:#762cfb}.cls-7{fill:#856ffc}.cls-10{fill:none}</style></defs><g style="isolation: isolate;"><g id="Layer_1"><circle class="cls-2" cx="790.4" cy="189.73" r="189.73"/><path class="cls-2" d="M1150.53 674.43V851.4c0 15.25-11.32 27.61-25.28 27.61h-669.7c-13.96 0-25.28-12.36-25.28-27.61V646.82c0-125.88 93.42-227.93 208.67-227.93h277.64c129.2 0 233.94 114.41 233.94 255.55Z"/><g style="clip-path: url(&quot;#clippath&quot;);"><path d="M858.08 936.97v176.97c0 15.25-11.32 27.61-25.28 27.61H163.1c-13.96 0-25.28-12.36-25.28-27.61V909.36c0-125.88 93.42-227.93 208.67-227.93h277.64c129.2 0 233.94 114.41 233.94 255.55Z" style="fill: rgb(88, 32, 209);"/></g><circle class="cls-7" cx="418.45" cy="409.7" r="189.73"></circle><path class="cls-7" d="M544.64 638.85H267c-115.25 0-208.67 102.05-208.67 227.93v204.58c0 15.25 11.32 27.61 25.28 27.61h669.7c13.96 0 25.28-12.36 25.28-27.61V894.39c0-141.14-104.74-255.55-233.94-255.55Z"/><path class="cls-7" d="M544.64 638.85H267c-115.25 0-208.67 102.05-208.67 227.93v204.58c0 15.25 11.32 27.61 25.28 27.61h669.7c13.96 0 25.28-12.36 25.28-27.61V894.39c0-141.14-104.74-255.55-233.94-255.55Z"/><g style="clip-path: url(&quot;#clippath-1&quot;);"><path d="M708.09 648.95s-74.67 413.96-674.67 393.08 0 213.79 0 213.79 1072 42.67 1074.67 16-114.67-472-152-504-248-118.87-248-118.87Z" style="fill: rgb(133, 111, 252); mix-blend-mode: multiply; opacity: 0.21;"/></g><path class="cls-1" d="M1172.66 804.31c-97.26 15.67-112.19 30.61-127.87 127.87-.22 1.36-2.17 1.36-2.39 0-15.67-97.26-30.61-112.19-127.87-127.87-1.36-.22-1.36-2.17 0-2.39 97.26-15.67 112.19-30.61 127.87-127.87.22-1.36 2.17-1.36 2.39 0 15.67 97.26 30.61 112.19 127.87 127.87 1.36.22 1.36 2.17 0 2.39ZM116.19 434.26c-43.61 7.03-50.3 13.72-57.33 57.33-.1.61-.97.61-1.07 0-7.03-43.61-13.72-50.3-57.33-57.33-.61-.1-.61-.97 0-1.07 43.61-7.03 50.3-13.72 57.33-57.33.1-.61.97-.61 1.07 0 7.03 43.61 13.72 50.3 57.33 57.33.61.1.61.97 0 1.07ZM954.76 982.7c-32.2 5.19-37.15 10.14-42.34 42.34-.07.45-.72.45-.79 0-5.19-32.2-10.14-37.15-42.34-42.34-.45-.07-.45-.72 0-.79 32.2-5.19 37.15-10.14 42.34-42.34.07-.45.72-.45.79 0 5.19 32.2 10.14 37.15 42.34 42.34.45.07.45.72 0 .79Z"/><circle cx="353.93" cy="342.54" r="76.34" style="fill: rgb(158, 148, 255);"/></g></g></svg>
